#!OML:ASF F:\VICON\USERDATA\INSTALL\rory3\rory3.ASF
:FULLY-SPECIFIED
:DEGREES
1
root 0.761331 18.0053 -27.0367 -2.84434 -1.61844 -1.00945
lowerback 10.4779 1.2684 0.140404
upperback 0.952683 1.74373 0.822974
thorax -4.9029 0.865093 0.525637
lowerneck -17.0638 -3.76861 -1.67976
upperneck 22.6374 -4.96953 0.603835
head 10.0902 -2.3657 -0.184251
rclavicle -1.84746e-014 7.95139e-016
rhumerus -27.4412 -17.929 -79.0291
rradius 30.6463
rwrist -1.02002
rhand -16.5806 23.8199
rfingers 7.12502
rthumb 9.64 -5.9395
lclavicle -1.84746e-014 7.95139e-016
lhumerus -33.348 8.30359 82.055
lradius 18.3825
lwrist 0.788042
lhand -26.2391 22.3185
lfingers 7.12502
lthumb 0.314801 52.298
rfemur -6.94355 2.46716 23.6167
rtibia 65.7416
rfoot 1.31607 -1.98917
rtoes -2.36646
lfemur -15.8741 -3.84207 -22.1692
ltibia 25.1188
lfoot -3.70152 -0.893226
ltoes 1.37589
2
root 0.777105 18.0047 -26.8718 -2.97913 -1.71689 -0.931201
lowerback 10.5193 1.25333 0.104143
upperback 1.0164 1.71823 0.807913
thorax -4.85965 0.853037 0.533939
lowerneck -16.8989 -3.6928 -1.57085
upperneck 22.5156 -4.87278 0.52041
head 10.0087 -2.32389 -0.213211
rclavicle 8.05078e-015 -8.05078e-015
rhumerus -27.5009 -17.8659 -79.0729
rradius 30.3025
rwrist -0.56056
rhand -17.2559 23.1421
rfingers 7.12502
rthumb 8.98846 -6.64637
lclavicle 8.05078e-015 -8.05078e-015
lhumerus -33.1288 7.67611 82.3045
lradius 18.7092
lwrist 1.54032
lhand -26.512 23.5581
lfingers 7.12502
lthumb 0.051209 53.5379
rfemur -8.26033 2.32133 23.4044
rtibia 67.098
rfoot 0.370141 -2.79732
rtoes -2.97079
lfemur -15.3119 -3.83093 -22.4004
ltibia 25.5116
lfoot -4.35766 -0.497449
ltoes 1.99896
3
root 0.787933 18.0117 -26.7138 -3.08296 -1.78722 -0.985483
lowerback 10.6875 1.14988 -0.025767
upperback 0.884524 1.57873 1.01531
thorax -5.0998 0.789038 0.839028
lowerneck -16.1697 -3.52998 -1.77962
upperneck 22.2971 -4.57408 0.432962
head 9.79385 -2.22071 -0.151932
rclavicle 2.07481e-015 1.19271e-014
rhumerus -27.9224 -17.7161 -78.8176
rradius 30.0113
rwrist -0.0422098
rhand -17.2642 22.7839
rfingers 7.12502
rthumb 8.98045 -7.00498
lclavicle 2.07481e-015 1.19271e-014
lhumerus -33.21 8.03137 82.2938
lradius 18.8714
lwrist 1.43762
lhand -26.6505 23.416
lfingers 7.12502
lthumb -0.0824901 53.3957
rfemur -9.59226 2.17485 23.41
rtibia 68.1861
rfoot -0.303316 -3.50169
rtoes -1.97201
lfemur -14.5952 -3.86324 -22.4397
ltibia 25.4975
lfoot -4.84883 -0.196574
ltoes 1.8964
4
root 0.799476 18.026 -26.5593 -3.21946 -2.03404 -0.7925
lowerback 11.1436 1.19636 -0.240736
upperback 0.791362 1.61462 0.978704
thorax -5.45806 0.811264 0.906736
lowerneck -16.0326 -3.51922 -1.74352
upperneck 22.2538 -4.54895 0.344472
head 9.74918 -2.21762 -0.182103
rclavicle -1.02995e-014 2.78299e-015
rhumerus -28.2196 -18.1746 -78.6597
rradius 29.6599
rwrist 0.614275
rhand -17.0932 22.7202
rfingers 7.12502
rthumb 9.1454 -7.06149
lclavicle -1.02995e-014 2.78299e-015
lhumerus -33.0629 7.96923 82.18
lradius 19.0869
lwrist 1.04067
lhand -26.4651 23.4189
lfingers 7.12502
lthumb 0.0965676 53.3986
rfemur -10.9182 2.23602 23.123
rtibia 69.1933
rfoot -1.17717 -3.97904
rtoes -0.857385
lfemur -13.8904 -3.86525 -22.7406
ltibia 25.587
lfoot -5.37778 0.286569
ltoes 2.31493
5
root 0.810444 18.0322 -26.3998 -3.31182 -2.42331 -0.577131
lowerback 11.324 1.27056 -0.415934
upperback 0.878867 1.68482 0.883906
thorax -5.47033 0.848357 0.892512
lowerneck -16.5114 -3.46448 -1.62704
upperneck 22.422 -4.49013 0.311675
head 9.89426 -2.18052 -0.216257
rclavicle -1.2188e-014 1.31198e-014
rhumerus -28.1332 -18.7266 -78.685
rradius 29.1367
rwrist 1.32609
rhand -17.0696 22.8637
rfingers 7.12502
rthumb 9.16822 -6.91699
lclavicle -1.2188e-014 1.31198e-014
lhumerus -32.6119 7.69344 82.1461
lradius 19.3321
lwrist 1.08907
lhand -26.465 23.9598
lfingers 7.12502
lthumb 0.0966325 53.9395
rfemur -12.2706 2.36544 22.7877
rtibia 70.0216
rfoot -2.09133 -4.42806
rtoes -0.299169
lfemur -13.1765 -3.64993 -23.0602
ltibia 25.6327
lfoot -5.96158 0.668124
ltoes 3.33257
6
root 0.819349 18.0315 -26.2367 -3.34452 -2.74086 -0.493547
lowerback 11.1298 1.30595 -0.527442
upperback 1.05905 1.71737 0.897439
thorax -5.17695 0.866006 0.970472
lowerneck -16.8932 -3.35523 -1.65133
upperneck 22.651 -4.33574 0.344915
head 10.048 -2.10378 -0.18967
rclavicle -8.34896e-015 1.07344e-014
rhumerus -27.9949 -18.849 -78.7457
rradius 28.741
rwrist 1.64978
rhand -17.1448 22.9882
rfingers 7.12502
rthumb 9.09557 -6.79565
lclavicle -8.34896e-015 1.07344e-014
lhumerus -32.1437 7.46584 82.2115
lradius 19.6726
lwrist 1.37195
lhand -26.3921 23.4581
lfingers 7.12502
lthumb 0.167024 53.4378
rfemur -13.6254 2.46775 22.6467
rtibia 70.6529
rfoot -2.92109 -4.84
rtoes -0.250989
lfemur -12.5282 -3.27315 -23.2269
ltibia 25.6508
lfoot -6.58962 0.815264
ltoes 3.12715
7
root 0.827072 18.0352 -26.0745 -3.22702 -2.53424 -0.471323
lowerback 10.7638 1.21622 -0.501059
upperback 1.39552 1.59783 0.863014
thorax -4.61613 0.804059 0.948985
lowerneck -17.7765 -3.40573 -1.50565
upperneck 22.7956 -4.42573 0.307859
head 10.263 -2.13034 -0.257509
rclavicle 4.89507e-015 4.96962e-015
rhumerus -27.4913 -19.4332 -78.8715
rradius 28.3467
rwrist 2.17186
rhand -16.8361 23.2146
rfingers 7.12502
rthumb 9.39351 -6.55607
lclavicle 4.89507e-015 4.96962e-015
lhumerus -31.1488 7.24776 82.2687
lradius 19.848
lwrist 1.41618
lhand -26.4237 22.2817
lfingers 7.12502
lthumb 0.136519 52.2614
rfemur -15.0847 2.17448 22.5993
rtibia 71.0733
rfoot -3.58666 -5.26805
rtoes 0.871474
lfemur -12.1383 -3.28112 -23.3346
ltibia 25.7349
lfoot -7.19381 0.796835
ltoes 3.7815
8
root 0.835675 18.0389 -25.9118 -3.11122 -2.19541 -0.308451
lowerback 10.5553 0.826027 -0.986008
upperback 0.552602 1.04463 1.16026
thorax -5.38539 0.552296 1.6118
lowerneck -14.2508 -3.17711 -2.11739
upperneck 22.0709 -3.97912 0.207528
head 9.35098 -2.01181 -0.0597813
rclavicle 9.93923e-016 6.36111e-015
rhumerus -29.4177 -18.3465 -78.1446
rradius 28.0927
rwrist 2.36097
rhand -16.9619 22.9794
rfingers 7.12502
rthumb 9.2721 -6.79667
lclavicle 9.93923e-016 6.36111e-015
lhumerus -33.1172 7.56906 82.1927
lradius 20.5785
lwrist 1.65028
lhand -26.2925 22.1258
lfingers 7.12502
lthumb 0.263201 52.1053
rfemur -16.4438 1.73534 22.37
rtibia 71.2909
rfoot -4.64089 -5.81835
rtoes -0.582311
lfemur -11.7251 -3.48415 -23.6129
ltibia 25.8257
lfoot -7.79534 0.864946
ltoes 4.64589
9
root 0.847725 18.0382 -25.7483 -3.15047 -2.18682 -0.16891
lowerback 10.5778 0.777714 -1.03273
upperback 0.717451 0.970305 1.09922
thorax -5.22182 0.513937 1.58594
lowerneck -14.8873 -3.20544 -2.09064
upperneck 22.3463 -4.01606 0.216564
head 9.56673 -2.02203 -0.0797948
rclavicle 1.97542e-015 1.21259e-014
rhumerus -29.2688 -18.7595 -78.1988
rradius 27.7286
rwrist 2.62891
rhand -17.2971 22.4998
rfingers 7.12502
rthumb 8.94861 -7.29047
lclavicle 1.97542e-015 1.21259e-014
lhumerus -32.5154 6.83845 82.4301
lradius 21.0122
lwrist 2.20026
lhand -26.3531 22.4896
lfingers 7.12502
lthumb 0.204755 52.4693
rfemur -17.6091 1.51223 22.1402
rtibia 71.3259
rfoot -5.74349 -6.14248
rtoes -2.92149
lfemur -11.093 -3.26865 -23.8832
ltibia 25.8785
lfoot -8.43064 0.950604
ltoes 3.4353
10
root 0.859588 18.0304 -25.5928 -3.30505 -2.22811 0.0609821
lowerback 10.8894 0.675677 -1.25726
upperback 0.60425 0.805906 1.10337
thorax -5.51252 0.441143 1.73948
lowerneck -14.5376 -3.06089 -2.17263
upperneck 22.4008 -3.78726 0.152162
head 9.51803 -1.93201 -0.0540613
rclavicle 1.2424e-016 -4.17448e-015
rhumerus -29.6667 -18.742 -78.051
rradius 27.4271
rwrist 2.87792
rhand -17.1777 22.5877
rfingers 7.12502
rthumb 9.06383 -7.19758
lclavicle 1.2424e-016 -4.17448e-015
lhumerus -32.5574 6.32824 82.6066
lradius 21.4535
lwrist 2.87063
lhand -26.5643 23.3452
lfingers 7.12502
lthumb 0.000712893 53.325
rfemur -18.6751 1.37846 21.819
rtibia 71.2325
rfoot -6.33333 -6.18918
rtoes -1.30179
lfemur -10.383 -2.97987 -24.2497
ltibia 25.9594
lfoot -8.94613 0.975857
ltoes 2.69056
11
root 0.863963 18.0257 -25.4402 -3.33935 -2.07391 0.234315
lowerback 11.084 0.50377 -1.49423
upperback 0.401169 0.546766 1.10818
thorax -5.82748 0.324261 1.91836
lowerneck -13.9983 -2.8705 -2.10355
upperneck 22.4678 -3.52824 0.0506811
head 9.43361 -1.81992 -0.0600909
rclavicle 6.34869e-015 1.07344e-014
rhumerus -30.1752 -18.616 -77.9674
rradius 27.1233
rwrist 3.00131
rhand -17.2547 22.5452
rfingers 7.12502
rthumb 8.98961 -7.24325
lclavicle 6.34869e-015 1.07344e-014
lhumerus -32.7313 6.03303 82.5597
lradius 21.8834
lwrist 3.42576
lhand -26.3754 23.7837
lfingers 7.12502
lthumb 0.183196 53.7634
rfemur -19.8347 1.14154 21.6061
rtibia 70.9902
rfoot -6.91167 -6.16693
rtoes 1.19561
lfemur -9.83992 -3.08543 -24.5294
ltibia 26.088
lfoot -9.22846 1.09805
ltoes 4.54698
12
root 0.86728 18.0132 -25.2853 -3.30945 -1.74316 0.25283
lowerback 11.0988 0.368944 -1.54385
upperback 0.484439 0.36148 1.11677
thorax -5.73993 0.233106 1.98485
lowerneck -14.3659 -2.92026 -1.9904
upperneck 22.5698 -3.60271 -0.0126907
head 9.53552 -1.85053 -0.116912
rclavicle -1.1778e-014 -9.54166e-015
rhumerus -30.1786 -19.0461 -77.9116
rradius 26.8479
rwrist 3.11066
rhand -17.349 22.4905
rfingers 7.12502
rthumb 8.89861 -7.30183
lclavicle -1.1778e-014 -9.54166e-015
lhumerus -32.1856 5.34444 82.7233
lradius 22.2937
lwrist 3.8894
lhand -26.5293 24.2441
lfingers 7.12502
lthumb 0.0345038 54.2239
rfemur -21.0242 0.741416 21.5852
rtibia 70.5766
rfoot -7.55478 -5.7368
rtoes -0.823602
lfemur -9.40042 -3.21202 -24.6324
ltibia 26.246
lfoot -9.41807 0.924154
ltoes 6.21928
